<?xml version="1.0" encoding="UTF-8"?>
<svg width="50px" height="50px" viewBox="0 0 50 50" version="1.1" xmlns="http://www.w3.org/2000/svg" xmlns:xlink="http://www.w3.org/1999/xlink">
    <!-- Generator: Sketch 53.2 (72643) - https://sketchapp.com -->
    <title>icon_offer</title>
    <desc>Created with Sketch.</desc>
    <g id="icon_offer" stroke="none" stroke-width="1" fill="none" fill-rule="evenodd">
        <g id="Group-4" transform="translate(17.000000, 17.000000)" stroke="#000000" stroke-width="2">
            <circle id="Oval" cx="2.5" cy="2.5" r="2.5"></circle>
            <circle id="Oval" cx="13.5" cy="13.5" r="2.5"></circle>
            <path d="M2.5,13.5 L14.09413,1.90586999" id="Line-2" stroke-linecap="square"></path>
        </g>
        <path d="M23.0744223,43.8898119 L21.6008131,44.5047532 C19.6456196,45.3206609 17.3876,44.5869858 16.2853937,42.7776688 L15.4546722,41.4140051 C14.7600269,40.2737161 13.6381585,39.458631 12.339022,39.1503527 L10.7853937,38.7816848 C8.72403048,38.2925341 7.32849761,36.3717479 7.50028391,34.2601191 L7.62975748,32.6686061 C7.73802266,31.3377907 7.30950708,30.0189553 6.43968502,29.0059397 L5.39947085,27.7944813 C4.01930852,26.1871112 4.01930852,23.8128888 5.39947085,22.2055187 L6.43968502,20.9940603 C7.30950708,19.9810447 7.73802266,18.6622093 7.62975748,17.3313939 L7.50028391,15.7398809 C7.32849761,13.6282521 8.72403048,11.7074659 10.7853937,11.2183152 L12.339022,10.8496473 C13.6381585,10.541369 14.7600269,9.72628393 15.4546722,8.58599495 L16.2853937,7.22233125 C17.3876,5.41301418 19.6456196,4.67933913 21.6008131,5.49524681 L23.0744223,6.11018805 C24.3066472,6.62439894 25.6933528,6.62439894 26.9255777,6.11018805 L28.3991869,5.49524681 C30.3543804,4.67933913 32.6124,5.41301418 33.7146063,7.22233125 L34.5453278,8.58599495 C35.2399731,9.72628393 36.3618415,10.541369 37.660978,10.8496473 L39.2146063,11.2183152 C41.2759695,11.7074659 42.6715024,13.6282521 42.4997161,15.7398809 L42.3702425,17.3313939 C42.2619773,18.6622093 42.6904929,19.9810447 43.560315,20.9940603 L44.6005292,22.2055187 C45.9806915,23.8128888 45.9806915,26.1871112 44.6005292,27.7944813 L43.560315,29.0059397 C42.6904929,30.0189553 42.2619773,31.3377907 42.3702425,32.6686061 L42.4997161,34.2601191 C42.6715024,36.3717479 41.2759695,38.2925341 39.2146063,38.7816848 L37.660978,39.1503527 C36.3618415,39.458631 35.2399731,40.2737161 34.5453278,41.4140051 L33.7146063,42.7776688 C32.6124,44.5869858 30.3543804,45.3206609 28.3991869,44.5047532 L26.9255777,43.8898119 C25.6933528,43.3756011 24.3066472,43.3756011 23.0744223,43.8898119 Z" id="Star" stroke="#000000" stroke-width="2"></path>
    </g>
</svg>