<?xml version="1.0" encoding="UTF-8"?>
<svg width="50px" height="50px" viewBox="0 0 50 50" version="1.1" xmlns="http://www.w3.org/2000/svg" xmlns:xlink="http://www.w3.org/1999/xlink">
    <!-- Generator: Sketch 53.2 (72643) - https://sketchapp.com -->
    <title>icon_waiter</title>
    <desc>Created with Sketch.</desc>
    <g id="icon_waiter" stroke="none" stroke-width="1" fill="none" fill-rule="evenodd">
        <g id="Group-3" transform="translate(12.000000, 4.000000)" stroke="#000000" stroke-width="2">
            <path d="M13,30 C17.1514236,30 20.8483516,27.6798564 23.2284134,24.0677801 C24.9645623,21.4329317 26,19.1106394 26,15.5 C26,6.93958638 20.1797017,1.42108547e-14 13,1.42108547e-14 C5.82029825,1.42108547e-14 0,6.93958638 0,15.5 C0,19.3493903 1.1769002,21.8710393 3.12508601,24.5813297 C5.50934639,27.8982813 9.04881915,30 13,30 Z" id="Oval"></path>
            <path d="M3,33.000266 L3,41.9766474 C3,42.5289322 3.44771525,42.9766474 4,42.9766474 C4.14147873,42.9766474 4.28134718,42.9466268 4.41036468,42.8885689 L12.5896353,39.2078971 C12.8506086,39.0904592 13.1493914,39.0904592 13.4103647,39.2078971 L21.5896353,42.8885689 C22.0932757,43.1152071 22.6852834,42.8906525 22.9119215,42.3870121 C22.9699794,42.2579946 23,42.1181262 23,41.9766474 L23,33.000266 C23,32.4479813 22.5522847,32.000266 22,32.000266 C21.8727806,32.000266 21.7467296,32.0245412 21.6286093,32.0717893 L13.3713907,35.3746768 C13.1329796,35.4700412 12.8670204,35.4700412 12.6286093,35.3746768 L4.37139068,32.0717893 C3.85860716,31.8666759 3.27663672,32.1160918 3.07152331,32.6288753 C3.0242752,32.7469956 3,32.8730466 3,33.000266 Z" id="Path-7"></path>
            <path d="M2,8.7558398 C4.9177601,9.06998137 7.13481436,9.06998137 8.65116279,8.7558398 C10.1675112,8.44169824 12.3845655,7.52308497 15.3023256,6 C17.0035528,7.51167961 18.3678939,8.43029287 19.3953488,8.7558398 C20.4228038,9.08138673 21.9576875,9.08138673 24,8.7558398" id="Path-8"></path>
        </g>
    </g>
</svg>